# Blender 3.1.0
# www.blender.org
o flag
v 0.088042 2.156195 0.025601
v 0.088042 2.280038 0.025601
v -0.046740 2.156195 0.025601
v -0.046740 2.280038 0.025601
v -0.046740 2.156195 -0.020122
v -0.046740 2.280038 -0.020122
v 0.088042 2.156195 -0.020122
v 0.088042 2.280038 -0.020122
v 0.088042 2.368616 0.025601
v 0.088042 2.505050 0.025601
v -0.046740 2.368616 0.025601
v -0.046740 2.505050 0.025601
v -0.046740 2.368616 -0.020122
v -0.046740 2.505050 -0.020122
v 0.088042 2.368616 -0.020122
v 0.088042 2.505050 -0.020122
v 0.088042 2.590409 0.025601
v 0.088042 2.726843 0.025601
v -0.046740 2.590409 0.025601
v -0.046740 2.726843 0.025601
v -0.046740 2.590409 -0.020122
v -0.046740 2.726843 -0.020122
v 0.088042 2.590409 -0.020122
v 0.088042 2.726843 -0.020122
v 0.088042 2.815422 0.025601
v 0.088042 2.938167 0.025601
v -0.046740 2.815422 0.025601
v -0.046740 2.938167 0.025601
v -0.046740 2.815422 -0.020122
v -0.046740 2.938167 -0.020122
v 0.088042 2.815422 -0.020122
v 0.088042 2.938167 -0.020122
v 1.367971 2.212892 0.025601
v 1.367971 2.881467 0.025601
v 0.149071 2.215839 0.025601
v 0.149071 2.878523 0.025601
v 0.132825 2.212085 -0.020122
v 0.132825 2.882277 -0.020122
v 1.367971 2.212892 -0.020122
v 1.367971 2.881467 -0.020123
v 0.440231 2.228868 0.025601
v 0.440231 2.865494 0.025601
v 0.440231 2.865494 -0.020122
v 0.440231 2.228868 -0.020122
v 1.039580 2.228868 0.025601
v 1.039580 2.865494 0.025601
v 1.039580 2.865494 -0.020123
v 1.039580 2.228868 -0.020122
v 0.440231 2.918584 0.025601
v 0.440231 2.918584 -0.020122
v 0.440231 2.175778 -0.020122
v 0.440231 2.175778 0.025601
v 1.039580 2.918584 0.025601
v 1.039580 2.918584 -0.020123
v 1.039580 2.175778 -0.020122
v 1.039580 2.175778 0.025601
v 1.375699 2.547158 0.025601
v 1.446868 2.547159 0.025601
v 1.446868 2.547159 -0.020123
v 1.375699 2.547158 -0.020123
v 1.169508 2.864890 0.025601
v 1.167032 2.859054 -0.020123
v 1.162705 2.914149 -0.020123
v 1.162972 2.914149 0.025601
v 1.205020 2.262047 0.025601
v 1.323256 2.361497 0.025601
v 1.330495 2.762009 0.025601
v 0.132825 2.563478 0.025601
v 0.252318 2.263829 0.025601
v 0.220323 2.436011 0.025601
v 0.132825 2.727128 0.025601
v 0.208256 2.826397 0.025601
v 1.433284 2.157766 0.025601
v 1.435882 2.157707 -0.020122
v 1.422875 2.935375 0.025602
v 1.430928 2.935756 -0.020123
v 0.001848 2.156195 0.047104
v 0.001848 2.280039 0.047104
v 0.001848 2.280039 -0.041625
v 0.001848 2.156195 -0.041625
v 0.001848 2.368616 0.047104
v 0.001848 2.505052 0.047104
v 0.001848 2.505052 -0.041625
v 0.001848 2.368616 -0.041625
v 0.001848 2.590411 0.047104
v 0.001848 2.726843 0.047103
v 0.001848 2.726843 -0.041625
v 0.001848 2.590411 -0.041625
v 0.001848 2.815423 0.047103
v 0.001848 2.938167 0.047103
v 0.001848 2.938167 -0.041625
v 0.001848 2.815423 -0.041625
v 0.004069 2.128365 -0.030071
v 0.004069 2.973556 -0.030072
v 0.032256 2.128365 -0.013797
v 0.032256 2.973556 -0.013798
v 0.032256 2.128365 0.018750
v 0.032256 2.973556 0.018750
v 0.004069 2.128365 0.035024
v 0.004069 2.973556 0.035024
v -0.024119 2.128365 0.018750
v -0.024119 2.973556 0.018750
v -0.024119 2.128365 -0.013797
v -0.024119 2.973556 -0.013798
v 0.004069 2.128365 -0.041110
v 0.041816 2.128365 -0.019317
v 0.041816 2.128365 0.024270
v 0.004069 2.128365 0.046063
v -0.033678 2.128365 0.024270
v -0.033678 2.128365 -0.019317
v 0.004068 0.688911 -0.041109
v 0.041815 0.688911 -0.019316
v 0.041815 0.688911 0.024270
v 0.004068 0.688911 0.046063
v -0.033679 0.688911 0.024270
v -0.033679 0.688911 -0.019316
v 0.004069 0.176997 -0.041109
v 0.041816 0.176997 -0.019316
v 0.041816 0.176997 0.024270
v 0.004069 0.176997 0.046063
v -0.033678 0.176997 0.024270
v -0.033678 0.176997 -0.019316
v 0.004069 0.002287 -0.041109
v 0.041816 0.002287 -0.019316
v 0.041816 0.002287 0.024270
v 0.004069 0.002287 0.046064
v -0.033678 0.002287 0.024270
v -0.033678 0.002287 -0.019316
v -0.033678 1.404850 -0.019317
v -0.033678 1.404850 0.024270
v 0.004068 1.404850 0.046063
v 0.041815 1.404850 0.024270
v 0.041815 1.404850 -0.019317
v 0.004068 1.404850 -0.041110
v -0.033678 1.766608 0.024270
v 0.041816 1.766608 0.024270
v 0.004069 1.766608 -0.041110
v -0.033678 1.766608 -0.019317
v 0.004069 1.766608 0.046063
v 0.041816 1.766608 -0.019317
v -0.033679 1.046880 -0.019316
v 0.004364 1.046880 0.034822
v 0.041815 1.046880 -0.019316
v -0.033679 1.046880 0.024270
v 0.041815 1.046880 0.024270
v 0.004068 1.046880 -0.041110
v 0.004069 0.432954 -0.041109
v -0.033678 0.432954 -0.019316
v -0.033678 0.432954 0.024270
v 0.004069 0.432954 0.046063
v 0.041816 0.432954 0.024270
v 0.041816 0.432954 -0.019316
v -0.033679 0.867896 -0.019316
v 0.004068 0.867896 0.046063
v 0.041815 0.867896 -0.019316
v -0.033679 0.867896 0.024270
v 0.041815 0.867896 0.024270
v 0.004068 0.867896 -0.041110
v -0.033679 1.225865 0.024270
v 0.041815 1.225865 0.024270
v 0.004068 1.225865 -0.041110
v -0.033679 1.225865 -0.019316
v 0.004068 1.225865 0.046063
v 0.041815 1.225865 -0.019316
v -0.033678 1.585729 -0.019317
v 0.004069 1.585729 0.046063
v 0.041815 1.585729 -0.019317
v -0.033678 1.585729 0.024270
v 0.041815 1.585729 0.024270
v 0.004424 1.585729 -0.030815
v -0.033678 1.947486 0.024270
v 0.041816 1.947486 0.024270
v 0.004069 1.947486 -0.041110
v -0.033678 1.947486 -0.019317
v 0.004069 1.947486 0.046063
v 0.041816 1.947486 -0.019317
v 0.004069 0.304975 -0.041109
v -0.033678 0.304975 0.024270
v 0.041816 0.304975 0.024270
v -0.033678 0.304975 -0.019316
v 0.004069 0.304975 0.046063
v 0.041816 0.304975 -0.019316
v -0.033678 0.089642 -0.019316
v -0.033678 0.089642 0.024270
v 0.004069 0.089642 0.046064
v 0.041816 0.089642 0.024270
v 0.041816 0.089642 -0.019316
v 0.004069 0.089642 -0.041109
vn -0.0040 -0.0000 0.0091
vn -0.0100 -0.0000 -0.0000
vn -0.0040 -0.0000 -0.0091
vn -0.0000 0.0100 -0.0000
vn -0.0000 -0.0100 -0.0000
vn -0.0000 -0.0000 -0.0100
vn 0.0100 0.0004 0.0001
vn 0.0099 0.0006 0.0016
vn 0.0098 0.0006 0.0017
vn -0.0000 -0.0000 0.0100
vn 0.0004 0.0100 -0.0000
vn 0.0006 0.0100 -0.0000
vn 0.0006 -0.0100 -0.0000
vn -0.0005 -0.0100 -0.0000
vn 0.0100 -0.0003 0.0005
vn 0.0100 -0.0003 -0.0000
vn 0.0100 -0.0003 0.0006
vn -0.0008 0.0100 -0.0001
vn -0.0008 0.0100 -0.0000
vn 0.0024 -0.0000 0.0097
vn 0.0024 -0.0000 -0.0097
vn 0.0050 -0.0000 -0.0087
vn 0.0100 -0.0000 -0.0000
vn 0.0050 -0.0000 0.0087
vn -0.0050 -0.0000 0.0087
vn -0.0050 -0.0000 -0.0087
vn -0.0032 0.0001 -0.0095
vn -0.0047 0.0004 -0.0088
vn -0.0029 -0.0000 -0.0096
vn 0.0033 0.0001 -0.0095
vn 0.0047 0.0004 -0.0088
vn 0.0050 0.0005 -0.0087
vn -0.0047 -0.0005 0.0088
vn -0.0030 -0.0001 0.0095
vn -0.0050 -0.0006 0.0086
vn 0.0047 -0.0005 0.0088
vn 0.0031 -0.0001 0.0095
vn 0.0027 -0.0000 0.0096
vn -0.0030 0.0001 0.0095
vn -0.0047 0.0005 0.0088
vn -0.0050 0.0006 0.0086
vn 0.0031 0.0001 0.0095
vn 0.0047 0.0005 0.0088
vn 0.0047 -0.0004 -0.0088
vn 0.0033 -0.0001 -0.0095
vn 0.0050 -0.0005 -0.0087
vn -0.0047 -0.0004 -0.0088
vn -0.0032 -0.0001 -0.0095
vn 0.0100 0.0004 -0.0000
vn -0.0050 0.0005 -0.0086
vn 0.0029 -0.0000 -0.0096
vn -0.0027 -0.0000 0.0096
vn 0.0050 -0.0005 0.0086
vn 0.0050 0.0005 0.0086
vn -0.0050 -0.0005 -0.0086
vt 0.167568 0.012853
vt 0.167560 0.012853
vt 0.167569 0.012880
vt 0.167561 0.012881
vt 0.167568 0.012881
vt 0.167560 0.012881
vt 0.167630 0.012855
vt 0.167560 0.012855
vt 0.167557 0.012853
vt 0.167549 0.012854
vt 0.167557 0.012881
vt 0.167549 0.012881
vt 0.167556 0.012882
vt 0.167549 0.012882
vt 0.167627 0.012855
vt 0.167548 0.012855
vt 0.167545 0.012854
vt 0.167537 0.012854
vt 0.167545 0.012881
vt 0.167537 0.012881
vt 0.167545 0.012882
vt 0.167537 0.012882
vt 0.167624 0.012855
vt 0.167537 0.012855
vt 0.167533 0.012854
vt 0.167525 0.012854
vt 0.167533 0.012881
vt 0.167525 0.012881
vt 0.167533 0.012882
vt 0.167526 0.012882
vt 0.167621 0.012855
vt 0.167526 0.012856
vt 0.019853 0.010109
vt 0.167628 0.012706
vt 0.019801 0.010108
vt 0.167620 0.012709
vt 0.019862 0.009876
vt 0.167629 0.012852
vt 0.019805 0.009876
vt 0.167619 0.012852
vt 0.019501 0.038181
vt 0.167629 0.012852
vt 0.019293 0.038181
vt 0.167620 0.012852
vt 0.019486 0.038302
vt 0.167628 0.012707
vt 0.019301 0.038302
vt 0.167620 0.012710
vt 0.019859 0.009921
vt 0.013684 0.037493
vt 0.167629 0.012824
vt 0.019499 0.038205
vt 0.019805 0.009897
vt 0.013326 0.984874
vt 0.167620 0.012832
vt 0.019295 0.038199
vt 0.019296 0.038199
vt 0.967757 0.984874
vt 0.167620 0.012832
vt 0.967395 0.037493
vt 0.019498 0.038205
vt 0.167629 0.012825
vt 0.967759 0.037493
vt 0.167628 0.012776
vt 0.019853 0.010037
vt 0.020001 0.038124
vt 0.967759 0.984874
vt 0.167620 0.012785
vt 0.019001 0.038124
vt 0.019296 0.038231
vt 0.013326 0.984874
vt 0.167620 0.012795
vt 0.019490 0.038240
vt 0.013326 0.037493
vt 0.167628 0.012784
vt 0.167619 0.012833
vt 0.167619 0.012833
vt 0.167630 0.012825
vt 0.167629 0.012824
vt 0.167619 0.012795
vt 0.167619 0.012795
vt 0.167629 0.012794
vt 0.167629 0.012794
vt 0.019827 0.010090
vt 0.167624 0.012719
vt 0.019392 0.038291
vt 0.167624 0.012715
vt 0.167624 0.012716
vt 0.019393 0.038293
vt 0.167624 0.012719
vt 0.019805 0.010062
vt 0.019040 0.038217
vt 0.167620 0.012736
vt 0.019306 0.038281
vt 0.019307 0.038280
vt 0.167620 0.012737
vt 0.167619 0.012734
vt 0.167619 0.012733
vt 0.019849 0.010059
vt 0.019472 0.038286
vt 0.019914 0.038238
vt 0.019843 0.010079
vt 0.019446 0.038292
vt 0.019810 0.010080
vt 0.019331 0.038292
vt 0.019832 0.009875
vt 0.019392 0.038181
vt 0.167624 0.012852
vt 0.019485 0.038185
vt 0.019857 0.009885
vt 0.019842 0.009883
vt 0.019431 0.038183
vt 0.019818 0.009875
vt 0.019341 0.038181
vt 0.167622 0.012852
vt 0.019809 0.009882
vt 0.019310 0.038184
vt 0.167629 0.012702
vt 0.167629 0.012702
vt 0.167619 0.012705
vt 0.167619 0.012705
vt 0.167569 0.012869
vt 0.167560 0.012870
vt 0.167560 0.012871
vt 0.167568 0.012871
vt 0.167557 0.012870
vt 0.167549 0.012870
vt 0.167548 0.012871
vt 0.167556 0.012871
vt 0.167545 0.012870
vt 0.167537 0.012870
vt 0.167537 0.012871
vt 0.167545 0.012871
vt 0.167533 0.012870
vt 0.167525 0.012870
vt 0.167526 0.012871
vt 0.167533 0.012871
vt 0.000000 0.000000
vt 0.000000 0.000000
vt 0.000000 0.000000
vt 0.000000 0.000000
vt 0.000000 0.000000
vt 0.000000 0.000000
vt 0.000000 0.000000
vt 0.000000 0.000000
vt 0.000000 0.000000
vt 0.000000 0.000000
vt 0.000000 0.000000
vt 0.000000 0.000000
vt 0.000000 0.000000
vt 0.000000 0.000000
vt 0.000000 0.000000
vt 0.000000 0.000000
vt 0.000000 0.000000
vt 0.000000 0.000000
vt 0.000000 0.000000
vt 0.000000 0.000000
vt 0.000000 0.000000
vt 0.000000 0.000000
vt 0.000000 0.000000
vt 0.000000 0.000000
vt 0.000000 0.000000
vt 0.000000 0.000000
vt 0.000000 0.000000
vt 0.000000 0.000000
vt 0.000000 0.000000
vt 0.000000 0.000000
vt 0.000000 0.000000
vt 0.000000 0.000000
vt 0.000000 0.000000
vt 0.000000 0.000000
vt 0.000000 0.000000
vt 0.000000 0.000000
vt 0.000000 0.000000
vt 0.000000 0.000000
vt 0.000000 0.000000
vt 0.000000 0.000000
vt 0.000000 0.000000
vt 0.000000 0.000000
vt 0.000000 0.000000
vt 0.000000 0.000000
vt 0.000000 0.000000
vt 0.000000 0.000000
vt 0.000000 0.000000
vt 0.000000 0.000000
vt 0.000000 0.000000
vt 0.000000 0.000000
vt 0.000000 0.000000
vt 0.000000 0.000000
vt 0.000000 0.000000
vt 0.000000 0.000000
vt 0.000000 0.000000
vt 0.000000 0.000000
vt 0.000000 0.000000
vt 0.000000 0.000000
vt 0.000000 0.000000
vt 0.000000 0.000000
vt 0.000000 0.000000
vt 0.000000 0.000000
vt 0.000000 0.000000
vt 0.000000 0.000000
vt 0.000000 0.000000
vt 0.000000 0.000000
vt 0.000000 0.000000
vt 0.000000 0.000000
vt 0.000000 0.000000
vt 0.000000 0.000000
vt 0.000000 0.000000
vt 0.000000 0.000000
vt 0.000000 0.000000
vt 0.000000 0.000000
vt 0.000000 0.000000
vt 0.000000 0.000000
vt 0.000000 0.000000
vt 0.000000 0.000000
vt 0.000000 0.000000
vt 0.000000 0.000000
vt 0.000000 0.000000
vt 0.000000 0.000000
vt 0.000000 0.000000
vt 0.000000 0.000000
vt 0.000000 0.000000
vt 0.000000 0.000000
vt 0.000000 0.000000
vt 0.000000 0.000000
vt 0.000000 0.000000
vt 0.000000 0.000000
vt 0.000000 0.000000
vt 0.000000 0.000000
vt 0.000000 0.000000
vt 0.000000 0.000000
vt 0.000000 0.000000
vt 0.000000 0.000000
s 1
f 77/122/1 4/4/1 3/3/1
f 4/4/2 5/5/2 3/3/2
f 6/6/3 80/125/3 5/5/3
f 79/124/4 4/4/4 78/123/4
f 80/125/5 3/3/5 5/5/5
f 81/126/1 12/12/1 11/11/1
f 12/12/2 13/13/2 11/11/2
f 14/14/3 84/129/3 13/13/3
f 83/128/4 12/12/4 82/127/4
f 84/129/5 11/11/5 13/13/5
f 85/130/1 20/20/1 19/19/1
f 20/20/2 21/21/2 19/19/2
f 22/22/3 88/133/3 21/21/3
f 87/132/4 20/20/4 86/131/4
f 88/133/5 19/19/5 21/21/5
f 89/134/1 28/28/1 27/27/1
f 27/27/2 30/30/2 29/29/2
f 30/30/3 92/137/3 29/29/3
f 90/135/4 30/30/4 28/28/4
f 92/137/5 27/27/5 29/29/5
f 38/43/6 44/61/6 37/41/6
f 58/87/7 76/121/8 75/120/9
f 46/67/10 41/50/10 45/63/10
f 54/81/4 49/76/4 53/80/4
f 43/58/6 48/74/6 44/60/6
f 56/83/5 51/78/5 55/82/5
f 48/73/6 47/70/6 62/95/6
f 10/10/10 68/108/10 17/17/10
f 8/8/6 37/42/6 7/7/6
f 59/88/6 40/48/6 76/121/6
f 34/36/10 58/87/10 75/120/10
f 36/40/10 49/76/10 26/26/10
f 37/42/6 51/78/6 7/7/6
f 43/59/6 54/81/6 47/72/6
f 46/68/10 49/76/10 42/55/10
f 41/51/10 56/83/10 45/64/10
f 48/75/6 51/78/6 44/62/6
f 40/48/6 63/97/6 76/121/6
f 56/83/10 33/34/10 45/64/10
f 55/82/6 39/46/6 74/119/6
f 58/87/10 33/34/10 73/118/10
f 39/46/6 59/88/6 74/119/6
f 60/89/6 62/95/6 40/47/6
f 63/97/11 53/80/11 64/98/11
f 48/73/6 62/95/6 60/89/6
f 63/97/6 47/72/6 54/81/6
f 64/98/10 34/36/10 75/120/10
f 48/73/6 60/89/6 39/45/6
f 61/91/10 67/104/10 34/35/10
f 69/110/10 35/37/10 41/49/10
f 50/77/12 26/26/12 49/76/12
f 52/79/13 7/7/13 51/78/13
f 50/77/6 38/44/6 32/32/6
f 52/79/10 35/38/10 1/1/10
f 33/33/10 57/84/10 66/102/10
f 64/98/10 46/68/10 61/93/10
f 33/33/10 65/99/10 45/65/10
f 33/33/10 66/102/10 65/99/10
f 34/35/10 67/104/10 57/84/10
f 65/100/10 57/86/10 67/105/10
f 46/69/10 65/101/10 61/92/10
f 71/113/10 72/116/10 36/39/10
f 42/56/10 71/114/10 68/107/10
f 35/37/10 70/111/10 68/106/10
f 41/52/10 70/112/10 69/109/10
f 36/39/10 72/116/10 42/53/10
f 73/118/14 55/82/14 74/119/14
f 74/119/15 58/87/16 73/118/17
f 75/120/18 63/97/19 64/98/19
f 2/2/2 15/15/2 8/8/2
f 10/10/2 23/23/2 16/16/2
f 18/18/2 31/31/2 24/24/2
f 25/25/10 36/40/10 26/26/10
f 9/9/10 68/108/10 10/10/10
f 17/17/10 71/115/10 18/18/10
f 71/115/10 25/25/10 18/18/10
f 35/38/10 9/9/10 2/2/10
f 35/38/10 2/2/10 1/1/10
f 38/44/6 24/24/6 31/31/6
f 38/44/6 31/31/6 32/32/6
f 38/44/6 23/23/6 24/24/6
f 16/16/6 37/42/6 15/15/6
f 15/15/6 37/42/6 8/8/6
f 38/44/6 16/16/6 23/23/6
f 2/2/20 77/122/20 1/1/20
f 8/8/4 78/123/4 2/2/4
f 80/125/21 8/8/21 7/7/21
f 1/1/5 80/125/5 7/7/5
f 10/10/20 81/126/20 9/9/20
f 16/16/4 82/127/4 10/10/4
f 84/129/21 16/16/21 15/15/21
f 9/9/5 84/129/5 15/15/5
f 18/18/20 85/130/20 17/17/20
f 24/24/4 86/131/4 18/18/4
f 88/133/21 24/24/21 23/23/21
f 17/17/5 88/133/5 23/23/5
f 26/26/20 89/134/20 25/25/20
f 32/32/4 90/135/4 26/26/4
f 92/137/21 32/32/21 31/31/21
f 25/25/5 92/137/5 31/31/5
f 94/139/22 95/140/22 93/138/22
f 95/140/23 98/143/23 97/142/23
f 98/143/24 99/144/24 97/142/24
f 100/145/25 101/146/25 99/144/25
f 94/139/4 102/147/4 98/143/4
f 101/146/2 104/149/2 103/148/2
f 104/149/26 93/138/26 103/148/26
f 95/140/4 107/152/4 106/151/4
f 153/198/2 115/160/2 156/201/2
f 103/148/4 109/154/4 101/146/4
f 95/140/4 105/150/4 93/138/4
f 97/142/4 108/153/4 107/152/4
f 93/138/4 110/155/4 103/148/4
f 99/144/4 109/154/4 108/153/4
f 177/222/26 122/167/26 180/225/26
f 154/199/24 113/158/24 157/202/24
f 155/200/22 111/156/22 158/203/22
f 153/198/26 111/156/26 116/161/26
f 154/199/25 115/160/25 114/159/25
f 155/200/23 113/158/23 112/157/23
f 183/228/2 127/172/2 184/229/2
f 181/226/25 121/166/25 120/165/25
f 179/224/23 118/163/23 182/227/23
f 178/223/2 122/167/2 121/166/2
f 179/224/24 120/165/24 119/164/24
f 182/227/22 117/162/22 177/222/22
f 124/169/5 126/171/5 128/173/5
f 185/230/24 125/170/24 186/231/24
f 188/233/22 124/169/22 123/168/22
f 188/233/26 128/173/26 183/228/26
f 184/229/25 126/171/25 185/230/25
f 186/231/23 124/169/23 187/232/23
f 167/212/23 132/177/23 133/178/23
f 166/211/25 130/175/25 131/176/25
f 170/215/27 129/174/28 165/210/29
f 170/215/30 133/178/31 134/179/32
f 166/211/24 132/177/24 169/214/24
f 165/210/2 130/175/2 168/213/2
f 174/219/2 135/180/2 171/216/2
f 175/220/24 136/181/24 172/217/24
f 176/221/22 137/182/22 173/218/22
f 174/219/26 137/182/26 138/183/26
f 175/220/25 135/180/25 139/184/25
f 176/221/23 136/181/23 140/185/23
f 164/209/23 145/190/23 143/188/23
f 159/204/33 142/187/34 163/208/35
f 162/207/26 146/191/26 141/186/26
f 164/209/22 146/191/22 161/206/22
f 160/205/36 142/187/37 145/190/38
f 162/207/2 144/189/2 159/204/2
f 112/157/22 147/192/22 111/156/22
f 113/158/24 150/195/24 151/196/24
f 116/161/2 149/194/2 115/160/2
f 113/158/23 152/197/23 112/157/23
f 114/159/25 149/194/25 150/195/25
f 111/156/26 148/193/26 116/161/26
f 143/188/23 157/202/23 155/200/23
f 142/187/39 156/201/40 154/199/41
f 141/186/26 158/203/26 153/198/26
f 143/188/22 158/203/22 146/191/22
f 142/187/42 157/202/43 145/190/38
f 141/186/2 156/201/2 144/189/2
f 129/174/2 159/204/2 130/175/2
f 131/176/24 160/205/24 132/177/24
f 133/178/22 161/206/22 134/179/22
f 129/174/26 161/206/26 162/207/26
f 131/176/25 159/204/25 163/208/25
f 133/178/23 160/205/23 164/209/23
f 138/183/2 168/213/2 135/180/2
f 139/184/24 169/214/24 136/181/24
f 140/185/44 170/215/45 137/182/46
f 138/183/47 170/215/48 165/210/29
f 135/180/25 166/211/25 139/184/25
f 136/181/23 167/212/23 140/185/23
f 106/151/23 172/217/23 176/221/23
f 108/153/25 171/216/25 175/220/25
f 110/155/26 173/218/26 174/219/26
f 106/151/22 173/218/22 105/150/22
f 108/153/24 172/217/24 107/152/24
f 110/155/2 171/216/2 109/154/2
f 152/197/22 177/222/22 147/192/22
f 151/196/24 181/226/24 179/224/24
f 148/193/2 178/223/2 149/194/2
f 151/196/23 182/227/23 152/197/23
f 150/195/25 178/223/25 181/226/25
f 147/192/26 180/225/26 148/193/26
f 119/164/23 187/232/23 118/163/23
f 121/166/25 185/230/25 120/165/25
f 122/167/26 188/233/26 183/228/26
f 117/162/22 187/232/22 188/233/22
f 119/164/24 185/230/24 186/231/24
f 121/166/2 183/228/2 184/229/2
f 77/122/1 78/123/1 4/4/1
f 4/4/2 6/6/2 5/5/2
f 6/6/3 79/124/3 80/125/3
f 79/124/4 6/6/4 4/4/4
f 80/125/5 77/122/5 3/3/5
f 81/126/1 82/127/1 12/12/1
f 12/12/2 14/14/2 13/13/2
f 14/14/3 83/128/3 84/129/3
f 83/128/4 14/14/4 12/12/4
f 84/129/5 81/126/5 11/11/5
f 85/130/1 86/131/1 20/20/1
f 20/20/2 22/22/2 21/21/2
f 22/22/3 87/132/3 88/133/3
f 87/132/4 22/22/4 20/20/4
f 88/133/5 85/130/5 19/19/5
f 89/134/1 90/135/1 28/28/1
f 27/27/2 28/28/2 30/30/2
f 30/30/3 91/136/3 92/137/3
f 90/135/4 91/136/4 30/30/4
f 92/137/5 89/134/5 27/27/5
f 38/43/6 43/57/6 44/61/6
f 58/87/7 59/88/49 76/121/8
f 46/67/10 42/54/10 41/50/10
f 54/81/4 50/77/4 49/76/4
f 43/58/6 47/71/6 48/74/6
f 56/83/5 52/79/5 51/78/5
f 59/88/6 60/90/6 40/48/6
f 34/36/10 57/85/10 58/87/10
f 36/40/10 42/55/10 49/76/10
f 37/42/6 44/62/6 51/78/6
f 43/59/6 50/77/6 54/81/6
f 46/68/10 53/80/10 49/76/10
f 41/51/10 52/79/10 56/83/10
f 48/75/6 55/82/6 51/78/6
f 40/48/6 62/96/6 63/97/6
f 56/83/10 73/118/10 33/34/10
f 55/82/6 48/75/6 39/46/6
f 58/87/10 57/85/10 33/34/10
f 39/46/6 60/90/6 59/88/6
f 63/97/11 54/81/11 53/80/11
f 63/97/6 62/96/6 47/72/6
f 64/98/10 61/93/10 34/36/10
f 50/77/12 32/32/12 26/26/12
f 52/79/13 1/1/13 7/7/13
f 50/77/6 43/59/6 38/44/6
f 52/79/10 41/51/10 35/38/10
f 64/98/10 53/80/10 46/68/10
f 67/105/10 61/94/10 65/100/10
f 65/100/10 66/103/10 57/86/10
f 46/69/10 45/66/10 65/101/10
f 68/107/10 70/112/10 42/56/10
f 42/56/10 72/117/10 71/114/10
f 35/37/10 69/110/10 70/111/10
f 41/52/10 42/56/10 70/112/10
f 73/118/14 56/83/14 55/82/14
f 74/119/15 59/88/16 58/87/16
f 75/120/18 76/121/18 63/97/19
f 2/2/2 9/9/2 15/15/2
f 10/10/2 17/17/2 23/23/2
f 18/18/2 25/25/2 31/31/2
f 17/17/10 68/108/10 71/115/10
f 71/115/10 36/40/10 25/25/10
f 35/38/10 68/108/10 9/9/10
f 38/44/6 37/42/6 16/16/6
f 2/2/20 78/123/20 77/122/20
f 8/8/4 79/124/4 78/123/4
f 80/125/21 79/124/21 8/8/21
f 1/1/5 77/122/5 80/125/5
f 10/10/20 82/127/20 81/126/20
f 16/16/4 83/128/4 82/127/4
f 84/129/21 83/128/21 16/16/21
f 9/9/5 81/126/5 84/129/5
f 18/18/20 86/131/20 85/130/20
f 24/24/4 87/132/4 86/131/4
f 88/133/21 87/132/21 24/24/21
f 17/17/5 85/130/5 88/133/5
f 26/26/20 90/135/20 89/134/20
f 32/32/4 91/136/4 90/135/4
f 92/137/21 91/136/21 32/32/21
f 25/25/5 89/134/5 92/137/5
f 94/139/22 96/141/22 95/140/22
f 95/140/23 96/141/23 98/143/23
f 98/143/24 100/145/24 99/144/24
f 100/145/25 102/147/25 101/146/25
f 98/143/4 96/141/4 94/139/4
f 94/139/4 104/149/4 102/147/4
f 102/147/4 100/145/4 98/143/4
f 101/146/2 102/147/2 104/149/2
f 104/149/26 94/139/26 93/138/26
f 95/140/4 97/142/4 107/152/4
f 153/198/2 116/161/2 115/160/2
f 103/148/4 110/155/4 109/154/4
f 95/140/4 106/151/4 105/150/4
f 97/142/4 99/144/4 108/153/4
f 93/138/4 105/150/4 110/155/4
f 99/144/4 101/146/4 109/154/4
f 177/222/26 117/162/26 122/167/26
f 154/199/24 114/159/24 113/158/24
f 155/200/22 112/157/22 111/156/22
f 153/198/26 158/203/26 111/156/26
f 154/199/25 156/201/25 115/160/25
f 155/200/23 157/202/23 113/158/23
f 183/228/2 128/173/2 127/172/2
f 181/226/25 178/223/25 121/166/25
f 179/224/23 119/164/23 118/163/23
f 178/223/2 180/225/2 122/167/2
f 179/224/24 181/226/24 120/165/24
f 182/227/22 118/163/22 117/162/22
f 128/173/5 123/168/5 124/169/5
f 124/169/5 125/170/5 126/171/5
f 126/171/5 127/172/5 128/173/5
f 185/230/24 126/171/24 125/170/24
f 188/233/22 187/232/22 124/169/22
f 188/233/26 123/168/26 128/173/26
f 184/229/25 127/172/25 126/171/25
f 186/231/23 125/170/23 124/169/23
f 167/212/23 169/214/23 132/177/23
f 166/211/25 168/213/25 130/175/25
f 170/215/27 134/179/50 129/174/28
f 170/215/30 167/212/51 133/178/31
f 166/211/24 131/176/24 132/177/24
f 165/210/2 129/174/2 130/175/2
f 174/219/2 138/183/2 135/180/2
f 175/220/24 139/184/24 136/181/24
f 176/221/22 140/185/22 137/182/22
f 174/219/26 173/218/26 137/182/26
f 175/220/25 171/216/25 135/180/25
f 176/221/23 172/217/23 136/181/23
f 164/209/23 160/205/23 145/190/23
f 159/204/33 144/189/52 142/187/34
f 162/207/26 161/206/26 146/191/26
f 164/209/22 143/188/22 146/191/22
f 160/205/36 163/208/53 142/187/37
f 162/207/2 141/186/2 144/189/2
f 112/157/22 152/197/22 147/192/22
f 113/158/24 114/159/24 150/195/24
f 116/161/2 148/193/2 149/194/2
f 113/158/23 151/196/23 152/197/23
f 114/159/25 115/160/25 149/194/25
f 111/156/26 147/192/26 148/193/26
f 143/188/23 145/190/23 157/202/23
f 142/187/39 144/189/52 156/201/40
f 141/186/26 146/191/26 158/203/26
f 143/188/22 155/200/22 158/203/22
f 142/187/42 154/199/54 157/202/43
f 141/186/2 153/198/2 156/201/2
f 129/174/2 162/207/2 159/204/2
f 131/176/24 163/208/24 160/205/24
f 133/178/22 164/209/22 161/206/22
f 129/174/26 134/179/26 161/206/26
f 131/176/25 130/175/25 159/204/25
f 133/178/23 132/177/23 160/205/23
f 138/183/2 165/210/2 168/213/2
f 139/184/24 166/211/24 169/214/24
f 140/185/44 167/212/51 170/215/45
f 138/183/47 137/182/55 170/215/48
f 135/180/25 168/213/25 166/211/25
f 136/181/23 169/214/23 167/212/23
f 106/151/23 107/152/23 172/217/23
f 108/153/25 109/154/25 171/216/25
f 110/155/26 105/150/26 173/218/26
f 106/151/22 176/221/22 173/218/22
f 108/153/24 175/220/24 172/217/24
f 110/155/2 174/219/2 171/216/2
f 152/197/22 182/227/22 177/222/22
f 151/196/24 150/195/24 181/226/24
f 148/193/2 180/225/2 178/223/2
f 151/196/23 179/224/23 182/227/23
f 150/195/25 149/194/25 178/223/25
f 147/192/26 177/222/26 180/225/26
f 119/164/23 186/231/23 187/232/23
f 121/166/25 184/229/25 185/230/25
f 122/167/26 117/162/26 188/233/26
f 117/162/22 118/163/22 187/232/22
f 119/164/24 120/165/24 185/230/24
f 121/166/2 122/167/2 183/228/2
